<svg width="24" height="21" viewBox="0 0 24 21" fill="none" xmlns="http://www.w3.org/2000/svg">
<path d="M23.8559 3.09913C22.9652 3.49311 22.0206 3.75185 21.0535 3.8668C22.0729 3.25714 22.8358 2.29765 23.2002 1.16713C22.2435 1.73646 21.1947 2.13546 20.1015 2.3513C19.3672 1.56564 18.3939 1.04459 17.333 0.869146C16.272 0.693704 15.1828 0.873703 14.2347 1.38116C13.2865 1.88861 12.5326 2.69509 12.0902 3.67522C11.6477 4.65535 11.5414 5.75421 11.7878 6.80096C9.84781 6.70373 7.9499 6.19957 6.21735 5.32124C4.4848 4.4429 2.95633 3.21002 1.73118 1.70263C1.29752 2.44749 1.06963 3.29423 1.07085 4.15613C1.07085 5.8478 1.93185 7.3423 3.24085 8.2173C2.46619 8.19291 1.70859 7.98371 1.03118 7.60713V7.6678C1.03142 8.79445 1.42128 9.88635 2.13467 10.7584C2.84806 11.6304 3.84108 12.2289 4.94535 12.4523C4.22623 12.6472 3.47221 12.6759 2.74035 12.5363C3.0517 13.5061 3.65852 14.3542 4.47587 14.9619C5.29322 15.5697 6.28017 15.9066 7.29852 15.9255C6.28641 16.7203 5.12756 17.3079 3.88821 17.6547C2.64886 18.0014 1.35333 18.1004 0.0756836 17.9461C2.306 19.3805 4.9023 20.1419 7.55402 20.1395C16.5292 20.1395 21.4374 12.7043 21.4374 6.25613C21.4374 6.04613 21.4315 5.8338 21.4222 5.62613C22.3775 4.93566 23.202 4.08032 23.857 3.1003L23.8559 3.09913Z" fill="#888888"/>
</svg>
